<svg height="526" width="720" xmlns="http://www.w3.org/2000/svg">
<rect height="526" fill="#555" width="720"></rect>
<text fill="#7f7" font-family="Courier New" font-size="12" xml:space="preserve">
<tspan x="10" y="26">8 megabytes installed</tspan>
<tspan x="10" y="42"></tspan>
<tspan x="10" y="58">node_modules</tspan>
<tspan x="10" y="74">└─┬ grunt-menu@1.0.2 </tspan>
<tspan x="10" y="90">  ├─┬ inquirer@0.8.5 </tspan>
<tspan x="10" y="106">  │ ├── ansi-regex@1.1.1 </tspan>
<tspan x="10" y="122">  │ ├─┬ chalk@1.1.3 </tspan>
<tspan x="10" y="138">  │ │ ├── ansi-styles@2.2.1 </tspan>
<tspan x="10" y="154">  │ │ ├── escape-string-regexp@1.0.5 </tspan>
<tspan x="10" y="170">  │ │ ├─┬ has-ansi@2.0.0 </tspan>
<tspan x="10" y="186">  │ │ │ └── ansi-regex@2.1.1 </tspan>
<tspan x="10" y="202">  │ │ ├─┬ strip-ansi@3.0.1 </tspan>
<tspan x="10" y="218">  │ │ │ └── ansi-regex@2.1.1 </tspan>
<tspan x="10" y="234">  │ │ └── supports-color@2.0.0 </tspan>
<tspan x="10" y="250">  │ ├── cli-width@1.1.1 </tspan>
<tspan x="10" y="266">  │ ├─┬ figures@1.7.0 </tspan>
<tspan x="10" y="282">  │ │ └── object-assign@4.1.1 </tspan>
<tspan x="10" y="298">  │ ├── lodash@3.10.1 </tspan>
<tspan x="10" y="314">  │ ├─┬ readline2@0.1.1 </tspan>
<tspan x="10" y="330">  │ │ ├── mute-stream@0.0.4 </tspan>
<tspan x="10" y="346">  │ │ └── strip-ansi@2.0.1 </tspan>
<tspan x="10" y="362">  │ ├── rx@2.5.3 </tspan>
<tspan x="10" y="378">  │ └── through@2.3.8 </tspan>
<tspan x="10" y="394">  └─┬ simple-output@0.2.2 </tspan>
<tspan x="10" y="410">    └─┬ log-symbols@1.0.0 </tspan>
<tspan x="10" y="426">      └─┬ chalk@0.5.1 </tspan>
<tspan x="10" y="442">        ├── ansi-styles@1.1.0 </tspan>
<tspan x="10" y="458">        ├─┬ has-ansi@0.1.0 </tspan>
<tspan x="10" y="474">        │ └── ansi-regex@0.2.1 </tspan>
<tspan x="10" y="490">        ├── strip-ansi@0.3.0 </tspan>
<tspan x="10" y="506">        └── supports-color@0.2.0</tspan>
</text>
</svg>
